# xmcd
#
# Track frame offsets: 
#        182
#        12995
#        19497
#        28267
#        38547
#        52675
#        62032
#        74795
#        83240
#        88720
#        97680
#        104242
#        113355
#        134717
#        138112
#        150555
#        162847
#        175810
#        193275
#        204647
#        211477
#        220032
#        229490
#        239025
#        244320
#        263795
#        286112
#        298710
#        311967
#        325277
#        328585
#        333112
#        337207
#
# Disc length: 4563 seconds
#
# Revision: 0
# Processed by: cddbd v1.4PL0 Copyright (c) Steve Scherf et al.
# Submitted via: ExactAudioCopy v0.90b3
#
DISCID=fa11d121
DTITLE=Jim Reeves - Welcome To My World - Disc 15
DYEAR=1900
DGENRE=Country
TTITLE0=My Mary (1994)
TTITLE1=When Did You Leave Heaven (1994)
TTITLE2=Christmas Alone (1994)
TTITLE3=Once Upon A Time (1994)
TTITLE4=God Be With You (1994)
TTITLE5=Jesus Is Calling (1994)
TTITLE6=Wagon Load Of Love (1) (1994)
TTITLE7=The Letter Edged In Black (1994)
TTITLE8=Chicken Hearted (1994)
TTITLE9=I've Never Been So Blue (1994)
TTITLE10=My Heart's Like A Welcome Mat (1994)
TTITLE11=Teardrops Of Regret (1994)
TTITLE12=I Could Cry (1994)
TTITLE13=You're The Sweetest Thing (1994)
TTITLE14=Wagon Load Of Love (2) (1994)
TTITLE15=Whispering Willow (1994)
TTITLE16=I'll Tell The World I Love You (1994)
TTITLE17=The Girl I Left Behind (1994)
TTITLE18=Chittlin' Blues (1994)
TTITLE19=Dissatisfied (1994)
TTITLE20=A Penny For Your Thoughts (1994)
TTITLE21=Near The Cross (1994)
TTITLE22=Humpty Dumpty Heart (1994)
TTITLE23=Naughty Angeline (1994)
TTITLE24=Got You On My Mind (1994)
TTITLE25=You Belong To Me (1994)
TTITLE26=Take Me In Your Arms And Hold Me (1994)
TTITLE27=Tijuana (1994)
TTITLE28=Yonder Comes A Sucker (1994)
TTITLE29=Mary Carter Paint (1) (1959)
TTITLE30=Mary Carter Paint (2) (1959)
TTITLE31=Mary Carter Paint (Instrumental) (3) (1959)
TTITLE32=Mary Carter Paint (4) (1959)
EXTD=
EXTT0=
EXTT1=
EXTT2=
EXTT3=
EXTT4=
EXTT5=
EXTT6=
EXTT7=
EXTT8=
EXTT9=
EXTT10=
EXTT11=
EXTT12=
EXTT13=
EXTT14=
EXTT15=
EXTT16=
EXTT17=
EXTT18=
EXTT19=
EXTT20=
EXTT21=
EXTT22=
EXTT23=
EXTT24=
EXTT25=
EXTT26=
EXTT27=
EXTT28=
EXTT29=
EXTT30=
EXTT31=
EXTT32=
PLAYORDER=
